<svg xmlns="http://www.w3.org/2000/svg" viewBox="0 0 247.75 247.82"><defs><style>.cls-1{fill:#00cdff;}.cls-2{fill:#fff;}</style></defs><title>logo-min</title><g id="Capa_2" data-name="Capa 2"><g id="tefcom"><rect class="cls-1" width="247.75" height="247.82" rx="24.69"/><path class="cls-2" d="M208.57,16.57A22.6,22.6,0,0,0,190.3,52.49L150.86,90.11a31.87,31.87,0,0,0-41.43-.63L78.18,58.22h0A14.59,14.59,0,0,0,79,56.66l0-.09c.1-.23.19-.46.28-.69l.15-.4.21-.62c.09-.33.18-.66.25-1,0-.14,0-.27.08-.41s.09-.55.13-.83c0-.13,0-.26,0-.39,0-.4.06-.8.06-1.22h0a13.36,13.36,0,0,0-.61-4,13.57,13.57,0,0,0-2.48-4.58,11.41,11.41,0,0,0-.87-1c-.31-.31-.63-.6-1-.88a13.39,13.39,0,0,0-8.6-3.08h0a13.39,13.39,0,0,0-8.61,3.08,14.46,14.46,0,0,0-1.83,1.84A13.57,13.57,0,0,0,53.84,47a13.36,13.36,0,0,0-.61,4h0A13.51,13.51,0,0,0,66.76,64.54h0c.41,0,.81,0,1.22-.06l.38,0,.83-.13.41-.08c.34-.07.67-.15,1-.25l.62-.21c.13-.05.27-.09.4-.15s.47-.18.69-.28l.09,0A13.14,13.14,0,0,0,74,62.44L105.21,93.7a31.93,31.93,0,0,0-.35,40.28L53.34,183.12a22.76,22.76,0,1,0,4.11,4.33L109,138.27a31.87,31.87,0,0,0,41.13.37l31.25,31.26h0a15.47,15.47,0,0,0-.84,1.55.31.31,0,0,1,0,.1c-.1.23-.19.46-.28.69l-.15.41-.21.61c-.09.33-.18.66-.25,1,0,.14,0,.27-.08.41s-.09.55-.13.83c0,.13,0,.26,0,.39,0,.4-.06.81-.06,1.22a13.51,13.51,0,0,0,8.26,12.46,12.91,12.91,0,0,0,2.54.79,13.53,13.53,0,1,0,2.72-26.78c-.41,0-.81,0-1.22.06l-.38,0-.83.13-.41.08c-.34.07-.68.16-1,.25l-.62.21-.4.15c-.23.09-.47.18-.69.28l-.09.05a13.07,13.07,0,0,0-1.56.85h0l-31.25-31.26a31.92,31.92,0,0,0,.59-40l39.46-37.63a22.62,22.62,0,1,0,14.16-40.25ZM66.76,42.67A8.35,8.35,0,1,1,58.41,51,8.34,8.34,0,0,1,66.76,42.67ZM39.18,218.35a17.6,17.6,0,1,1,17.6-17.6A17.6,17.6,0,0,1,39.18,218.35Zm153.63-32.9a8.35,8.35,0,1,1,8.35-8.34A8.34,8.34,0,0,1,192.81,185.45Zm-37-71.39a26,26,0,1,1-26-26A26,26,0,0,1,155.78,114.06Zm52.79-57.27a17.6,17.6,0,1,1,17.6-17.6A17.6,17.6,0,0,1,208.57,56.79Z"/></g></g></svg>