<svg xmlns="http://www.w3.org/2000/svg" viewBox="0 0 1024.28 247.82"><defs><style>.cls-1{fill:#00cdff;}.cls-2{fill:#fff;}.cls-3{fill:#312d2a;}</style></defs><title>logo</title><g id="Capa_2" data-name="Capa 2"><g id="tefcom"><rect class="cls-1" width="247.75" height="247.82" rx="24.69"/><ellipse class="cls-2" cx="129.74" cy="113.77" rx="31.91" ry="31.92"/><path class="cls-2" d="M208.57,16.57A22.6,22.6,0,0,0,190.3,52.49L150.86,90.11a31.87,31.87,0,0,0-41.43-.63L78.18,58.22h0A14.59,14.59,0,0,0,79,56.66l0-.09c.1-.23.19-.46.28-.69l.15-.4.21-.62c.09-.33.18-.66.25-1,0-.14,0-.27.08-.41s.09-.55.13-.83c0-.13,0-.26,0-.39,0-.4.06-.8.06-1.22h0a13.36,13.36,0,0,0-.61-4,13.57,13.57,0,0,0-2.48-4.58,11.41,11.41,0,0,0-.87-1c-.31-.31-.63-.6-1-.88a13.39,13.39,0,0,0-8.6-3.08h0a13.39,13.39,0,0,0-8.61,3.08,14.46,14.46,0,0,0-1.83,1.84A13.57,13.57,0,0,0,53.84,47a13.36,13.36,0,0,0-.61,4h0A13.51,13.51,0,0,0,66.76,64.54h0c.41,0,.81,0,1.22-.06l.38,0,.83-.13.41-.08c.34-.07.67-.15,1-.25l.62-.21c.13-.05.27-.09.4-.15s.47-.18.69-.28l.09,0A13.14,13.14,0,0,0,74,62.44L105.21,93.7a31.93,31.93,0,0,0-.35,40.28L53.34,183.12a22.76,22.76,0,1,0,4.11,4.33L109,138.27a31.87,31.87,0,0,0,41.13.37l31.25,31.26h0a15.47,15.47,0,0,0-.84,1.55.31.31,0,0,1,0,.1c-.1.23-.19.46-.28.69l-.15.41-.21.61c-.09.33-.18.66-.25,1,0,.14,0,.27-.08.41s-.09.55-.13.83c0,.13,0,.26,0,.39,0,.4-.06.81-.06,1.22a13.51,13.51,0,0,0,8.26,12.46,12.91,12.91,0,0,0,2.54.79,13.53,13.53,0,1,0,2.72-26.78c-.41,0-.81,0-1.22.06l-.38,0-.83.13-.41.08c-.34.07-.68.16-1,.25l-.62.21-.4.15c-.23.09-.47.18-.69.28l-.09.05a13.07,13.07,0,0,0-1.56.85h0l-31.25-31.26a31.92,31.92,0,0,0,.59-40l39.46-37.63a22.62,22.62,0,1,0,14.16-40.25ZM66.76,42.67A8.35,8.35,0,1,1,58.41,51,8.34,8.34,0,0,1,66.76,42.67ZM39.18,218.35a17.6,17.6,0,1,1,17.6-17.6A17.6,17.6,0,0,1,39.18,218.35Zm153.63-32.9a8.35,8.35,0,1,1,8.35-8.34A8.34,8.34,0,0,1,192.81,185.45Zm-37-71.39a26,26,0,1,1-26-26A26,26,0,0,1,155.78,114.06Zm52.79-57.27a17.6,17.6,0,1,1,17.6-17.6A17.6,17.6,0,0,1,208.57,56.79Z"/><path class="cls-3" d="M326.47,205.22q-9.08-9.79-8.6-32.72l1-65.66H298.54V91.32l20.77-4.06,3.58-35.82h18.86V87.26h34.61v19.58H341.75v65.43q0,12.89,4.89,17.9a19.16,19.16,0,0,0,12.29,5.74l15.76,1.43V215H355.35Q335.54,215,326.47,205.22Z"/><path class="cls-3" d="M407.15,210.47q-11.82-6-16.95-20.06T385.07,151q0-25.78,5.13-39.87T407,91.32q11.7-5.73,32.47-5.73,18.13,0,28.88,3.82a27.65,27.65,0,0,1,15.76,13.13q5,9.31,5,25.79,0,16.95-9.79,24.47t-28.17,7.53H408.94q.24,14.56,3.23,22.56A19.87,19.87,0,0,0,423,194.47q7.88,3.59,22.67,3.58h39.87v14.33q-13.12,1.92-23.15,3a216.65,216.65,0,0,1-22.68,1.07Q419,216.44,407.15,210.47Zm41.9-65.19q9.78,0,14.2-3.7t4.42-13q0-14.32-6.33-19.82t-21.84-5.49q-12.18,0-18.74,3.58t-9.31,12.53q-2.74,9-2.75,25.91Z"/><path class="cls-3" d="M517.84,106.84H498.75V91.32l19.09-4.06V74.6q0-22.2,8.72-32.71t29.72-10.51A127.93,127.93,0,0,1,581.34,34V51.2H560.57q-11,0-14.92,5.25t-3.94,17V87.26h37.48v19.58H541.71V215H517.84Z"/><path class="cls-1" d="M598.53,201.88q-14.09-14.56-14.08-50.39,0-25.54,6.2-40.11t18.14-20.54q11.94-6,30.32-6a165.93,165.93,0,0,1,44.64,6v20.3H650.09q-11.46,0-17.9,3.34t-9.43,11.94q-3,8.6-3,24.83,0,16,3,24.24t9.43,11.22q6.45,3,18.38,3h35.09v20.05a142.05,142.05,0,0,1-22.2,4.78,176.29,176.29,0,0,1-25.3,1.91Q612.62,216.44,598.53,201.88Z"/><path class="cls-1" d="M718.63,210.11Q706,204,700.13,189.82t-5.85-39.28q0-26,5.85-40.24t18.5-19.82q12.64-5.61,34.37-5.61,22,0,34.62,5.85t18.5,20.06Q812,125,812,150.54t-5.72,39.75q-5.75,14.22-18.39,20.06T753,216.2Q731.28,216.2,718.63,210.11Zm48.46-24.59q4.77-2.51,7.16-10.51t2.38-24.47q0-16.48-2.38-24.48t-7.16-10.51q-4.79-2.51-14.09-2.5-9.07,0-13.85,2.5T732,126.06q-2.38,8-2.38,24.48T732,175q2.38,8,7.16,10.51T753,188Q762.32,188,767.09,185.52Z"/><path class="cls-1" d="M828.53,86.78h29.12l6.21,13.13a85.78,85.78,0,0,1,19.58-11.34q9.78-3.94,23.15-3.94,11.7,0,19.81,4.9a32.67,32.67,0,0,1,12.42,13.25A112.62,112.62,0,0,1,960.54,90a56.27,56.27,0,0,1,23.16-5.37q22,0,31.27,12.18t9.31,35.1V215H989V135q0-9.06-4.9-13.84t-13.48-4.78a38.88,38.88,0,0,0-14.21,2.86,60.77,60.77,0,0,0-13.25,7.17,66.91,66.91,0,0,1,1,9.31V215H908.74V135q0-9.06-4.9-13.84t-13.48-4.78q-13.14,0-26.5,9.55V215H828.53Z"/></g></g></svg>